# xmcd
#
# Track frame offsets: 
#        150
#        29545
#        55370
#        112060
#        136443
#        184717
#        215755
#        241447
#
# Disc length: 3573 seconds
#
# Revision: 0
# Processed by: cddbd v1.5.2PL0 Copyright (c) Steve Scherf et al.
# Submitted via: ExactAudioCopy v1.0b1
#
DISCID=7c0df308
DTITLE=Quatuor Talich - W.A.Mozart - Complete String Quartets CD5
DYEAR=2010
DGENRE=Classical
TTITLE0=Quartet No.18 In A - Allegro
TTITLE1=Quartet No.18 In A - Menuetto
TTITLE2=Quartet No.18 In A - Andante
TTITLE3=Quartet No.18 In A - Allegro Non Troppo
TTITLE4=Quartet No.19 In C - Adagio - Allegro
TTITLE5=Quartet No.19 In C -Andante cantabile
TTITLE6=Quartet No.19 In C - Allegretto 
TTITLE7=Quartet No.19 In C - Allegro Molto
EXTD=
EXTT0=
EXTT1=
EXTT2=
EXTT3=
EXTT4=
EXTT5=
EXTT6=
EXTT7=
PLAYORDER=
